<svg width="16" height="333" viewBox="0 0 16 333" fill="none" xmlns="http://www.w3.org/2000/svg">
<line y1="-0.5" x2="304.384" y2="-0.5" transform="matrix(0.00328532 0.999995 -0.999985 0.00555881 7 14.3086)" stroke="black"/>
<path d="M5.7173 14.3086H7.06003C7.06003 14.3086 7.06983 8.19776 3.82671 7.47256C0.491723 6.72679 -1.19031 11.9374 0.959853 14.0805C1.20199 10.5997 5.5947 10.9851 5.7173 14.3086Z" fill="black"/>
<path d="M11.1733 7.47256C7.93013 8.19776 7.93997 14.3086 7.93997 14.3086H9.2827C9.40529 10.9851 13.798 10.5997 14.0402 14.0805C16.1903 11.9374 14.5083 6.72679 11.1733 7.47256Z" fill="black"/>
<path d="M8.18153 14.3086C8.18153 10.0772 10.1391 7.84388 10.1391 4.99904C10.1391 2.47026 8.53884 0.684718 7.37549 0C6.21209 0.684718 4.61182 2.47031 4.61182 4.99904C4.61182 7.84388 6.56944 10.0772 6.56944 14.3086C6.56944 14.3086 8.1812 14.3086 8.18153 14.3086Z" fill="black"/>
<path d="M6.7173 318.691H8.06003C8.06003 318.691 8.06983 324.802 4.82671 325.527C1.49172 326.273 -0.190308 321.063 1.95985 318.92C2.20199 322.4 6.5947 322.015 6.7173 318.691Z" fill="black"/>
<path d="M12.1733 325.527C8.93013 324.802 8.93997 318.691 8.93997 318.691H10.2827C10.4053 322.015 14.798 322.4 15.0402 318.92C17.1903 321.063 15.5083 326.273 12.1733 325.527Z" fill="black"/>
<path d="M9.18153 318.691C9.18153 322.923 11.1391 325.156 11.1391 328.001C11.1391 330.53 9.53884 332.315 8.37549 333C7.21209 332.315 5.61182 330.53 5.61182 328.001C5.61182 325.156 7.56944 322.923 7.56944 318.691C7.56944 318.691 9.1812 318.691 9.18153 318.691Z" fill="black"/>
<path d="M8 151L16 163L8 175L0 163L8 151Z" fill="black"/>
<circle cx="8" cy="178" r="3" fill="black"/>
<circle cx="8" cy="148" r="3" fill="black"/>
</svg>
